# xmcd CD database file
#
# Track frame offsets:
#	187
#	32082
#	80512
#	109287
#	139967
#	182637
#	217660
#
# Disc length: 3230 seconds
#
# Revision: 0
# Processed by: cddbd v1.4PL0 Copyright (c) Steve Scherf et al.
# Submitted via: CDex 1.50Beta7
#
DISCID=5b0c9c07
DTITLE=Csepregi Gyula - Pipeline
DYEAR=1900
DGENRE=Jazz
TTITLE0=pipe-light express
TTITLE1=pipe in
TTITLE2=peace-pipe
TTITLE3=who pays the piper
TTITLE4=pipe dream
TTITLE5=pid piper
TTITLE6=dark pipe
EXTD=
EXTT0=
EXTT1=
EXTT2=
EXTT3=
EXTT4=
EXTT5=
EXTT6=
PLAYORDER=
